<mxfile host="app.diagrams.net" modified="2020-11-19T12:00:55.876Z" agent="5.0 (Macintosh; Intel Mac OS X 10_15_3) AppleWebKit/537.36 (KHTML, like Gecko) Chrome/80.0.3987.149 Safari/537.36" etag="6W_lE9zmXr7AEjRzYtIg" version="13.9.7" type="github" pages="4">
  <diagram id="RE9aqQgumnxz4IVs1E7I" name="Page-1">
    <mxGraphModel dx="2066" dy="1153" grid="1" gridSize="10" guides="1" tooltips="1" connect="1" arrows="1" fold="1" page="1" pageScale="1" pageWidth="827" pageHeight="1169" math="0" shadow="0">
      <root>
        <mxCell id="0" />
        <mxCell id="1" parent="0" />
        <mxCell id="IbDKx-pDAE6MS3J6Wlu7-13" value="" style="edgeStyle=orthogonalEdgeStyle;rounded=0;orthogonalLoop=1;jettySize=auto;html=1;" parent="1" source="IbDKx-pDAE6MS3J6Wlu7-1" target="IbDKx-pDAE6MS3J6Wlu7-2" edge="1">
          <mxGeometry relative="1" as="geometry" />
        </mxCell>
        <mxCell id="IbDKx-pDAE6MS3J6Wlu7-1" value="当前帧" style="rounded=0;whiteSpace=wrap;html=1;" parent="1" vertex="1">
          <mxGeometry x="60" y="210" width="90" height="40" as="geometry" />
        </mxCell>
        <mxCell id="IbDKx-pDAE6MS3J6Wlu7-10" value="" style="edgeStyle=orthogonalEdgeStyle;rounded=0;orthogonalLoop=1;jettySize=auto;html=1;" parent="1" source="IbDKx-pDAE6MS3J6Wlu7-2" target="IbDKx-pDAE6MS3J6Wlu7-5" edge="1">
          <mxGeometry relative="1" as="geometry" />
        </mxCell>
        <mxCell id="IbDKx-pDAE6MS3J6Wlu7-2" value="超分开启" style="rhombus;whiteSpace=wrap;html=1;" parent="1" vertex="1">
          <mxGeometry x="240" y="190" width="80" height="80" as="geometry" />
        </mxCell>
        <mxCell id="IbDKx-pDAE6MS3J6Wlu7-9" value="" style="edgeStyle=orthogonalEdgeStyle;rounded=0;orthogonalLoop=1;jettySize=auto;html=1;" parent="1" source="IbDKx-pDAE6MS3J6Wlu7-3" target="IbDKx-pDAE6MS3J6Wlu7-4" edge="1">
          <mxGeometry relative="1" as="geometry" />
        </mxCell>
        <mxCell id="IbDKx-pDAE6MS3J6Wlu7-3" value="处理结果" style="rounded=0;whiteSpace=wrap;html=1;" parent="1" vertex="1">
          <mxGeometry x="400" y="200" width="120" height="60" as="geometry" />
        </mxCell>
        <mxCell id="IbDKx-pDAE6MS3J6Wlu7-4" value="渲染" style="rounded=0;whiteSpace=wrap;html=1;" parent="1" vertex="1">
          <mxGeometry x="610" y="200" width="120" height="60" as="geometry" />
        </mxCell>
        <mxCell id="IbDKx-pDAE6MS3J6Wlu7-5" value="超分结果" style="rounded=0;whiteSpace=wrap;html=1;" parent="1" vertex="1">
          <mxGeometry x="220" y="340" width="120" height="60" as="geometry" />
        </mxCell>
        <mxCell id="IbDKx-pDAE6MS3J6Wlu7-6" value="" style="endArrow=classic;html=1;entryX=0;entryY=0.5;entryDx=0;entryDy=0;" parent="1" target="IbDKx-pDAE6MS3J6Wlu7-3" edge="1">
          <mxGeometry width="50" height="50" relative="1" as="geometry">
            <mxPoint x="320" y="230" as="sourcePoint" />
            <mxPoint x="370" y="180" as="targetPoint" />
          </mxGeometry>
        </mxCell>
        <mxCell id="IbDKx-pDAE6MS3J6Wlu7-11" value="否" style="text;html=1;strokeColor=none;fillColor=none;align=center;verticalAlign=middle;whiteSpace=wrap;rounded=0;" parent="1" vertex="1">
          <mxGeometry x="330" y="200" width="40" height="20" as="geometry" />
        </mxCell>
        <mxCell id="IbDKx-pDAE6MS3J6Wlu7-12" value="是" style="text;html=1;strokeColor=none;fillColor=none;align=center;verticalAlign=middle;whiteSpace=wrap;rounded=0;" parent="1" vertex="1">
          <mxGeometry x="290" y="290" width="40" height="20" as="geometry" />
        </mxCell>
        <mxCell id="IbDKx-pDAE6MS3J6Wlu7-14" value="" style="endArrow=classic;html=1;exitX=1;exitY=0.5;exitDx=0;exitDy=0;entryX=0.5;entryY=1;entryDx=0;entryDy=0;" parent="1" source="IbDKx-pDAE6MS3J6Wlu7-5" target="IbDKx-pDAE6MS3J6Wlu7-3" edge="1">
          <mxGeometry width="50" height="50" relative="1" as="geometry">
            <mxPoint x="350" y="400" as="sourcePoint" />
            <mxPoint x="400" y="350" as="targetPoint" />
            <Array as="points">
              <mxPoint x="460" y="370" />
            </Array>
          </mxGeometry>
        </mxCell>
      </root>
    </mxGraphModel>
  </diagram>
  <diagram id="zLqqlZafkvK2wp5hJhVF" name="Page-2">
    <mxGraphModel dx="2893" dy="1153" grid="1" gridSize="10" guides="1" tooltips="1" connect="1" arrows="1" fold="1" page="1" pageScale="1" pageWidth="827" pageHeight="1169" math="0" shadow="0">
      <root>
        <mxCell id="nBE2-j64Bk9Abv0jZw_k-0" />
        <mxCell id="nBE2-j64Bk9Abv0jZw_k-1" parent="nBE2-j64Bk9Abv0jZw_k-0" />
        <mxCell id="EOZLOPHoHhyB3wEfcKth-1" style="edgeStyle=orthogonalEdgeStyle;rounded=0;orthogonalLoop=1;jettySize=auto;html=1;exitX=1;exitY=0.5;exitDx=0;exitDy=0;" parent="nBE2-j64Bk9Abv0jZw_k-1" source="EOZLOPHoHhyB3wEfcKth-0" edge="1">
          <mxGeometry relative="1" as="geometry">
            <mxPoint x="99" y="210" as="targetPoint" />
          </mxGeometry>
        </mxCell>
        <mxCell id="EOZLOPHoHhyB3wEfcKth-0" value="ffmpeg YUV" style="rounded=0;whiteSpace=wrap;html=1;" parent="nBE2-j64Bk9Abv0jZw_k-1" vertex="1">
          <mxGeometry x="-101" y="180" width="120" height="60" as="geometry" />
        </mxCell>
        <mxCell id="EOZLOPHoHhyB3wEfcKth-14" style="edgeStyle=orthogonalEdgeStyle;rounded=0;orthogonalLoop=1;jettySize=auto;html=1;exitX=1;exitY=0.5;exitDx=0;exitDy=0;entryX=0;entryY=0.5;entryDx=0;entryDy=0;" parent="nBE2-j64Bk9Abv0jZw_k-1" source="EOZLOPHoHhyB3wEfcKth-3" target="EOZLOPHoHhyB3wEfcKth-13" edge="1">
          <mxGeometry relative="1" as="geometry" />
        </mxCell>
        <mxCell id="EOZLOPHoHhyB3wEfcKth-3" value="YUV" style="rounded=0;whiteSpace=wrap;html=1;fillColor=#f8cecc;strokeColor=#b85450;" parent="nBE2-j64Bk9Abv0jZw_k-1" vertex="1">
          <mxGeometry x="548" y="180" width="120" height="60" as="geometry" />
        </mxCell>
        <mxCell id="EOZLOPHoHhyB3wEfcKth-7" style="edgeStyle=orthogonalEdgeStyle;rounded=0;orthogonalLoop=1;jettySize=auto;html=1;exitX=0.5;exitY=0;exitDx=0;exitDy=0;entryX=0.5;entryY=1;entryDx=0;entryDy=0;" parent="nBE2-j64Bk9Abv0jZw_k-1" source="EOZLOPHoHhyB3wEfcKth-5" target="EOZLOPHoHhyB3wEfcKth-0" edge="1">
          <mxGeometry relative="1" as="geometry" />
        </mxCell>
        <mxCell id="EOZLOPHoHhyB3wEfcKth-8" style="edgeStyle=orthogonalEdgeStyle;rounded=0;orthogonalLoop=1;jettySize=auto;html=1;exitX=0.5;exitY=1;exitDx=0;exitDy=0;" parent="nBE2-j64Bk9Abv0jZw_k-1" source="EOZLOPHoHhyB3wEfcKth-5" target="EOZLOPHoHhyB3wEfcKth-6" edge="1">
          <mxGeometry relative="1" as="geometry" />
        </mxCell>
        <mxCell id="EOZLOPHoHhyB3wEfcKth-44" style="edgeStyle=orthogonalEdgeStyle;rounded=0;orthogonalLoop=1;jettySize=auto;html=1;" parent="nBE2-j64Bk9Abv0jZw_k-1" source="EOZLOPHoHhyB3wEfcKth-5" edge="1">
          <mxGeometry relative="1" as="geometry">
            <mxPoint x="-151" y="335" as="targetPoint" />
          </mxGeometry>
        </mxCell>
        <mxCell id="EOZLOPHoHhyB3wEfcKth-5" value="200k 270p mp4" style="rounded=0;whiteSpace=wrap;html=1;" parent="nBE2-j64Bk9Abv0jZw_k-1" vertex="1">
          <mxGeometry x="-101" y="305" width="120" height="60" as="geometry" />
        </mxCell>
        <mxCell id="EOZLOPHoHhyB3wEfcKth-19" style="edgeStyle=orthogonalEdgeStyle;rounded=0;orthogonalLoop=1;jettySize=auto;html=1;exitX=1;exitY=0.5;exitDx=0;exitDy=0;entryX=0;entryY=0.5;entryDx=0;entryDy=0;" parent="nBE2-j64Bk9Abv0jZw_k-1" source="EOZLOPHoHhyB3wEfcKth-6" target="EOZLOPHoHhyB3wEfcKth-18" edge="1">
          <mxGeometry relative="1" as="geometry" />
        </mxCell>
        <mxCell id="EOZLOPHoHhyB3wEfcKth-6" value="YUV" style="rounded=0;whiteSpace=wrap;html=1;" parent="nBE2-j64Bk9Abv0jZw_k-1" vertex="1">
          <mxGeometry x="-101" y="450" width="120" height="60" as="geometry" />
        </mxCell>
        <mxCell id="EOZLOPHoHhyB3wEfcKth-12" style="edgeStyle=orthogonalEdgeStyle;rounded=0;orthogonalLoop=1;jettySize=auto;html=1;exitX=1;exitY=0.5;exitDx=0;exitDy=0;entryX=0;entryY=0.5;entryDx=0;entryDy=0;" parent="nBE2-j64Bk9Abv0jZw_k-1" source="EOZLOPHoHhyB3wEfcKth-9" target="EOZLOPHoHhyB3wEfcKth-11" edge="1">
          <mxGeometry relative="1" as="geometry" />
        </mxCell>
        <mxCell id="EOZLOPHoHhyB3wEfcKth-9" value="pytorch 超分" style="rounded=0;whiteSpace=wrap;html=1;" parent="nBE2-j64Bk9Abv0jZw_k-1" vertex="1">
          <mxGeometry x="228" y="450" width="120" height="60" as="geometry" />
        </mxCell>
        <mxCell id="EOZLOPHoHhyB3wEfcKth-17" style="edgeStyle=orthogonalEdgeStyle;rounded=0;orthogonalLoop=1;jettySize=auto;html=1;exitX=1;exitY=0.5;exitDx=0;exitDy=0;entryX=0;entryY=0.5;entryDx=0;entryDy=0;" parent="nBE2-j64Bk9Abv0jZw_k-1" source="EOZLOPHoHhyB3wEfcKth-11" target="EOZLOPHoHhyB3wEfcKth-16" edge="1">
          <mxGeometry relative="1" as="geometry" />
        </mxCell>
        <mxCell id="EOZLOPHoHhyB3wEfcKth-41" style="edgeStyle=orthogonalEdgeStyle;rounded=0;orthogonalLoop=1;jettySize=auto;html=1;exitX=0.5;exitY=1;exitDx=0;exitDy=0;entryX=0.5;entryY=0;entryDx=0;entryDy=0;" parent="nBE2-j64Bk9Abv0jZw_k-1" source="EOZLOPHoHhyB3wEfcKth-11" target="EOZLOPHoHhyB3wEfcKth-39" edge="1">
          <mxGeometry relative="1" as="geometry" />
        </mxCell>
        <mxCell id="EOZLOPHoHhyB3wEfcKth-11" value="360 RGB" style="rounded=0;whiteSpace=wrap;html=1;fillColor=#d5e8d4;strokeColor=#82b366;" parent="nBE2-j64Bk9Abv0jZw_k-1" vertex="1">
          <mxGeometry x="389" y="450" width="120" height="60" as="geometry" />
        </mxCell>
        <mxCell id="EOZLOPHoHhyB3wEfcKth-30" style="edgeStyle=orthogonalEdgeStyle;rounded=0;orthogonalLoop=1;jettySize=auto;html=1;exitX=1;exitY=0.5;exitDx=0;exitDy=0;entryX=0;entryY=0.5;entryDx=0;entryDy=0;" parent="nBE2-j64Bk9Abv0jZw_k-1" source="EOZLOPHoHhyB3wEfcKth-13" target="EOZLOPHoHhyB3wEfcKth-29" edge="1">
          <mxGeometry relative="1" as="geometry" />
        </mxCell>
        <mxCell id="EOZLOPHoHhyB3wEfcKth-13" value="mp4" style="rounded=0;whiteSpace=wrap;html=1;fillColor=#f5f5f5;strokeColor=#666666;fontColor=#333333;" parent="nBE2-j64Bk9Abv0jZw_k-1" vertex="1">
          <mxGeometry x="708" y="180" width="120" height="60" as="geometry" />
        </mxCell>
        <mxCell id="EOZLOPHoHhyB3wEfcKth-34" style="edgeStyle=orthogonalEdgeStyle;rounded=0;orthogonalLoop=1;jettySize=auto;html=1;exitX=1;exitY=0.5;exitDx=0;exitDy=0;entryX=0;entryY=0.5;entryDx=0;entryDy=0;" parent="nBE2-j64Bk9Abv0jZw_k-1" source="EOZLOPHoHhyB3wEfcKth-16" target="EOZLOPHoHhyB3wEfcKth-27" edge="1">
          <mxGeometry relative="1" as="geometry" />
        </mxCell>
        <mxCell id="EOZLOPHoHhyB3wEfcKth-16" value="mp4" style="rounded=0;whiteSpace=wrap;html=1;fillColor=#f5f5f5;strokeColor=#666666;fontColor=#333333;" parent="nBE2-j64Bk9Abv0jZw_k-1" vertex="1">
          <mxGeometry x="550" y="450" width="120" height="60" as="geometry" />
        </mxCell>
        <mxCell id="EOZLOPHoHhyB3wEfcKth-20" style="edgeStyle=orthogonalEdgeStyle;rounded=0;orthogonalLoop=1;jettySize=auto;html=1;exitX=1;exitY=0.5;exitDx=0;exitDy=0;entryX=0;entryY=0.5;entryDx=0;entryDy=0;" parent="nBE2-j64Bk9Abv0jZw_k-1" source="EOZLOPHoHhyB3wEfcKth-18" target="EOZLOPHoHhyB3wEfcKth-9" edge="1">
          <mxGeometry relative="1" as="geometry" />
        </mxCell>
        <mxCell id="EOZLOPHoHhyB3wEfcKth-18" value="opencv 270 RGB" style="rounded=0;whiteSpace=wrap;html=1;fillColor=#dae8fc;strokeColor=#6c8ebf;" parent="nBE2-j64Bk9Abv0jZw_k-1" vertex="1">
          <mxGeometry x="60" y="450" width="120" height="60" as="geometry" />
        </mxCell>
        <mxCell id="EOZLOPHoHhyB3wEfcKth-51" style="edgeStyle=orthogonalEdgeStyle;rounded=0;orthogonalLoop=1;jettySize=auto;html=1;exitX=1;exitY=0.5;exitDx=0;exitDy=0;entryX=0;entryY=0.5;entryDx=0;entryDy=0;" parent="nBE2-j64Bk9Abv0jZw_k-1" source="EOZLOPHoHhyB3wEfcKth-21" target="EOZLOPHoHhyB3wEfcKth-49" edge="1">
          <mxGeometry relative="1" as="geometry" />
        </mxCell>
        <mxCell id="EOZLOPHoHhyB3wEfcKth-21" value="libyuv UT" style="rounded=0;whiteSpace=wrap;html=1;" parent="nBE2-j64Bk9Abv0jZw_k-1" vertex="1">
          <mxGeometry x="210" y="180" width="120" height="60" as="geometry" />
        </mxCell>
        <mxCell id="EOZLOPHoHhyB3wEfcKth-24" style="edgeStyle=orthogonalEdgeStyle;rounded=0;orthogonalLoop=1;jettySize=auto;html=1;exitX=0;exitY=0.5;exitDx=0;exitDy=0;entryX=1;entryY=0.5;entryDx=0;entryDy=0;" parent="nBE2-j64Bk9Abv0jZw_k-1" source="EOZLOPHoHhyB3wEfcKth-23" target="EOZLOPHoHhyB3wEfcKth-5" edge="1">
          <mxGeometry relative="1" as="geometry" />
        </mxCell>
        <mxCell id="EOZLOPHoHhyB3wEfcKth-33" style="edgeStyle=orthogonalEdgeStyle;rounded=0;orthogonalLoop=1;jettySize=auto;html=1;exitX=1;exitY=0.5;exitDx=0;exitDy=0;entryX=0;entryY=0.5;entryDx=0;entryDy=0;" parent="nBE2-j64Bk9Abv0jZw_k-1" source="EOZLOPHoHhyB3wEfcKth-23" target="EOZLOPHoHhyB3wEfcKth-32" edge="1">
          <mxGeometry relative="1" as="geometry" />
        </mxCell>
        <mxCell id="EOZLOPHoHhyB3wEfcKth-48" style="edgeStyle=orthogonalEdgeStyle;rounded=0;orthogonalLoop=1;jettySize=auto;html=1;exitX=1;exitY=0.5;exitDx=0;exitDy=0;entryX=0;entryY=0.5;entryDx=0;entryDy=0;" parent="nBE2-j64Bk9Abv0jZw_k-1" source="EOZLOPHoHhyB3wEfcKth-23" target="EOZLOPHoHhyB3wEfcKth-37" edge="1">
          <mxGeometry relative="1" as="geometry" />
        </mxCell>
        <mxCell id="EOZLOPHoHhyB3wEfcKth-23" value="360p mp4" style="rounded=0;whiteSpace=wrap;html=1;" parent="nBE2-j64Bk9Abv0jZw_k-1" vertex="1">
          <mxGeometry x="380" y="305" width="120" height="60" as="geometry" />
        </mxCell>
        <mxCell id="EOZLOPHoHhyB3wEfcKth-27" value="RGB" style="rounded=0;whiteSpace=wrap;html=1;fillColor=#f5f5f5;strokeColor=#666666;fontColor=#333333;" parent="nBE2-j64Bk9Abv0jZw_k-1" vertex="1">
          <mxGeometry x="700" y="450" width="120" height="60" as="geometry" />
        </mxCell>
        <mxCell id="EOZLOPHoHhyB3wEfcKth-29" value="RGB" style="rounded=0;whiteSpace=wrap;html=1;fillColor=#f5f5f5;strokeColor=#666666;fontColor=#333333;" parent="nBE2-j64Bk9Abv0jZw_k-1" vertex="1">
          <mxGeometry x="869" y="180" width="120" height="60" as="geometry" />
        </mxCell>
        <mxCell id="EOZLOPHoHhyB3wEfcKth-32" value="RGB" style="rounded=0;whiteSpace=wrap;html=1;fillColor=#d5e8d4;strokeColor=#82b366;" parent="nBE2-j64Bk9Abv0jZw_k-1" vertex="1">
          <mxGeometry x="548" y="360" width="120" height="60" as="geometry" />
        </mxCell>
        <mxCell id="EOZLOPHoHhyB3wEfcKth-37" value="YUV" style="rounded=0;whiteSpace=wrap;html=1;fillColor=#f8cecc;strokeColor=#b85450;" parent="nBE2-j64Bk9Abv0jZw_k-1" vertex="1">
          <mxGeometry x="548" y="270" width="120" height="60" as="geometry" />
        </mxCell>
        <mxCell id="EOZLOPHoHhyB3wEfcKth-39" value="YUV" style="rounded=0;whiteSpace=wrap;html=1;fillColor=#f8cecc;strokeColor=#b85450;" parent="nBE2-j64Bk9Abv0jZw_k-1" vertex="1">
          <mxGeometry x="389" y="560" width="120" height="60" as="geometry" />
        </mxCell>
        <mxCell id="EOZLOPHoHhyB3wEfcKth-45" value="ffmpeg RGB" style="rounded=0;whiteSpace=wrap;html=1;fillColor=#dae8fc;strokeColor=#6c8ebf;" parent="nBE2-j64Bk9Abv0jZw_k-1" vertex="1">
          <mxGeometry x="-270" y="300" width="120" height="60" as="geometry" />
        </mxCell>
        <mxCell id="EOZLOPHoHhyB3wEfcKth-52" style="edgeStyle=orthogonalEdgeStyle;rounded=0;orthogonalLoop=1;jettySize=auto;html=1;exitX=1;exitY=0.5;exitDx=0;exitDy=0;entryX=0;entryY=0.5;entryDx=0;entryDy=0;" parent="nBE2-j64Bk9Abv0jZw_k-1" source="EOZLOPHoHhyB3wEfcKth-46" target="EOZLOPHoHhyB3wEfcKth-21" edge="1">
          <mxGeometry relative="1" as="geometry" />
        </mxCell>
        <mxCell id="EOZLOPHoHhyB3wEfcKth-46" value="libyuv 输入 rgb save" style="rounded=0;whiteSpace=wrap;html=1;fillColor=#dae8fc;strokeColor=#6c8ebf;" parent="nBE2-j64Bk9Abv0jZw_k-1" vertex="1">
          <mxGeometry x="50" y="180" width="120" height="60" as="geometry" />
        </mxCell>
        <mxCell id="EOZLOPHoHhyB3wEfcKth-50" style="edgeStyle=orthogonalEdgeStyle;rounded=0;orthogonalLoop=1;jettySize=auto;html=1;exitX=1;exitY=0.5;exitDx=0;exitDy=0;entryX=0;entryY=0.5;entryDx=0;entryDy=0;" parent="nBE2-j64Bk9Abv0jZw_k-1" source="EOZLOPHoHhyB3wEfcKth-49" target="EOZLOPHoHhyB3wEfcKth-3" edge="1">
          <mxGeometry relative="1" as="geometry" />
        </mxCell>
        <mxCell id="EOZLOPHoHhyB3wEfcKth-49" value="libyuv 输出 rgb" style="rounded=0;whiteSpace=wrap;html=1;fillColor=#d5e8d4;strokeColor=#82b366;" parent="nBE2-j64Bk9Abv0jZw_k-1" vertex="1">
          <mxGeometry x="380" y="180" width="120" height="60" as="geometry" />
        </mxCell>
      </root>
    </mxGraphModel>
  </diagram>
  <diagram id="Uwt2lz0_pyt89CDreiV6" name="超分对齐 pytorch VS rtcdemo">
    <mxGraphModel dx="2893" dy="1153" grid="1" gridSize="10" guides="1" tooltips="1" connect="1" arrows="1" fold="1" page="1" pageScale="1" pageWidth="827" pageHeight="1169" math="0" shadow="0">
      <root>
        <mxCell id="WfYX8LZw4Kz7-65XDeq0-0" />
        <mxCell id="WfYX8LZw4Kz7-65XDeq0-1" parent="WfYX8LZw4Kz7-65XDeq0-0" />
        <mxCell id="Rk_urhNJCo8wzRaNjZ8N-0" style="edgeStyle=orthogonalEdgeStyle;rounded=0;orthogonalLoop=1;jettySize=auto;html=1;exitX=1;exitY=0.5;exitDx=0;exitDy=0;" parent="WfYX8LZw4Kz7-65XDeq0-1" source="Rk_urhNJCo8wzRaNjZ8N-1" edge="1">
          <mxGeometry relative="1" as="geometry">
            <mxPoint x="99" y="210" as="targetPoint" />
          </mxGeometry>
        </mxCell>
        <mxCell id="Rk_urhNJCo8wzRaNjZ8N-1" value="ffmpeg YUV" style="rounded=0;whiteSpace=wrap;html=1;" parent="WfYX8LZw4Kz7-65XDeq0-1" vertex="1">
          <mxGeometry x="-101" y="180" width="120" height="60" as="geometry" />
        </mxCell>
        <mxCell id="Rk_urhNJCo8wzRaNjZ8N-2" style="edgeStyle=orthogonalEdgeStyle;rounded=0;orthogonalLoop=1;jettySize=auto;html=1;exitX=1;exitY=0.5;exitDx=0;exitDy=0;entryX=0;entryY=0.5;entryDx=0;entryDy=0;" parent="WfYX8LZw4Kz7-65XDeq0-1" source="Rk_urhNJCo8wzRaNjZ8N-3" target="Rk_urhNJCo8wzRaNjZ8N-16" edge="1">
          <mxGeometry relative="1" as="geometry" />
        </mxCell>
        <mxCell id="Rk_urhNJCo8wzRaNjZ8N-3" value="YUV" style="rounded=0;whiteSpace=wrap;html=1;fillColor=#f8cecc;strokeColor=#b85450;" parent="WfYX8LZw4Kz7-65XDeq0-1" vertex="1">
          <mxGeometry x="548" y="180" width="120" height="60" as="geometry" />
        </mxCell>
        <mxCell id="Rk_urhNJCo8wzRaNjZ8N-4" style="edgeStyle=orthogonalEdgeStyle;rounded=0;orthogonalLoop=1;jettySize=auto;html=1;exitX=0.5;exitY=0;exitDx=0;exitDy=0;entryX=0.5;entryY=1;entryDx=0;entryDy=0;" parent="WfYX8LZw4Kz7-65XDeq0-1" source="Rk_urhNJCo8wzRaNjZ8N-7" target="Rk_urhNJCo8wzRaNjZ8N-1" edge="1">
          <mxGeometry relative="1" as="geometry" />
        </mxCell>
        <mxCell id="Rk_urhNJCo8wzRaNjZ8N-5" style="edgeStyle=orthogonalEdgeStyle;rounded=0;orthogonalLoop=1;jettySize=auto;html=1;exitX=0.5;exitY=1;exitDx=0;exitDy=0;" parent="WfYX8LZw4Kz7-65XDeq0-1" source="Rk_urhNJCo8wzRaNjZ8N-7" target="Rk_urhNJCo8wzRaNjZ8N-9" edge="1">
          <mxGeometry relative="1" as="geometry" />
        </mxCell>
        <mxCell id="Rk_urhNJCo8wzRaNjZ8N-6" style="edgeStyle=orthogonalEdgeStyle;rounded=0;orthogonalLoop=1;jettySize=auto;html=1;" parent="WfYX8LZw4Kz7-65XDeq0-1" source="Rk_urhNJCo8wzRaNjZ8N-7" edge="1">
          <mxGeometry relative="1" as="geometry">
            <mxPoint x="-151" y="335" as="targetPoint" />
          </mxGeometry>
        </mxCell>
        <mxCell id="Rk_urhNJCo8wzRaNjZ8N-7" value="200k 270p mp4" style="rounded=0;whiteSpace=wrap;html=1;" parent="WfYX8LZw4Kz7-65XDeq0-1" vertex="1">
          <mxGeometry x="-101" y="305" width="120" height="60" as="geometry" />
        </mxCell>
        <mxCell id="Rk_urhNJCo8wzRaNjZ8N-8" style="edgeStyle=orthogonalEdgeStyle;rounded=0;orthogonalLoop=1;jettySize=auto;html=1;exitX=1;exitY=0.5;exitDx=0;exitDy=0;entryX=0;entryY=0.5;entryDx=0;entryDy=0;" parent="WfYX8LZw4Kz7-65XDeq0-1" source="Rk_urhNJCo8wzRaNjZ8N-9" target="Rk_urhNJCo8wzRaNjZ8N-20" edge="1">
          <mxGeometry relative="1" as="geometry" />
        </mxCell>
        <mxCell id="Rk_urhNJCo8wzRaNjZ8N-9" value="YUV" style="rounded=0;whiteSpace=wrap;html=1;" parent="WfYX8LZw4Kz7-65XDeq0-1" vertex="1">
          <mxGeometry x="-101" y="450" width="120" height="60" as="geometry" />
        </mxCell>
        <mxCell id="Rk_urhNJCo8wzRaNjZ8N-10" style="edgeStyle=orthogonalEdgeStyle;rounded=0;orthogonalLoop=1;jettySize=auto;html=1;exitX=1;exitY=0.5;exitDx=0;exitDy=0;entryX=0;entryY=0.5;entryDx=0;entryDy=0;" parent="WfYX8LZw4Kz7-65XDeq0-1" source="Rk_urhNJCo8wzRaNjZ8N-11" target="Rk_urhNJCo8wzRaNjZ8N-14" edge="1">
          <mxGeometry relative="1" as="geometry" />
        </mxCell>
        <mxCell id="Rk_urhNJCo8wzRaNjZ8N-11" value="pytorch 超分" style="rounded=0;whiteSpace=wrap;html=1;" parent="WfYX8LZw4Kz7-65XDeq0-1" vertex="1">
          <mxGeometry x="228" y="450" width="120" height="60" as="geometry" />
        </mxCell>
        <mxCell id="Rk_urhNJCo8wzRaNjZ8N-12" style="edgeStyle=orthogonalEdgeStyle;rounded=0;orthogonalLoop=1;jettySize=auto;html=1;exitX=1;exitY=0.5;exitDx=0;exitDy=0;entryX=0;entryY=0.5;entryDx=0;entryDy=0;" parent="WfYX8LZw4Kz7-65XDeq0-1" source="Rk_urhNJCo8wzRaNjZ8N-14" target="Rk_urhNJCo8wzRaNjZ8N-18" edge="1">
          <mxGeometry relative="1" as="geometry" />
        </mxCell>
        <mxCell id="Rk_urhNJCo8wzRaNjZ8N-13" style="edgeStyle=orthogonalEdgeStyle;rounded=0;orthogonalLoop=1;jettySize=auto;html=1;exitX=0.5;exitY=1;exitDx=0;exitDy=0;entryX=0.5;entryY=0;entryDx=0;entryDy=0;" parent="WfYX8LZw4Kz7-65XDeq0-1" source="Rk_urhNJCo8wzRaNjZ8N-14" target="Rk_urhNJCo8wzRaNjZ8N-31" edge="1">
          <mxGeometry relative="1" as="geometry" />
        </mxCell>
        <mxCell id="Rk_urhNJCo8wzRaNjZ8N-14" value="360 RGB" style="rounded=0;whiteSpace=wrap;html=1;fillColor=#d5e8d4;strokeColor=#82b366;" parent="WfYX8LZw4Kz7-65XDeq0-1" vertex="1">
          <mxGeometry x="389" y="450" width="120" height="60" as="geometry" />
        </mxCell>
        <mxCell id="Rk_urhNJCo8wzRaNjZ8N-15" style="edgeStyle=orthogonalEdgeStyle;rounded=0;orthogonalLoop=1;jettySize=auto;html=1;exitX=1;exitY=0.5;exitDx=0;exitDy=0;entryX=0;entryY=0.5;entryDx=0;entryDy=0;" parent="WfYX8LZw4Kz7-65XDeq0-1" source="Rk_urhNJCo8wzRaNjZ8N-16" target="Rk_urhNJCo8wzRaNjZ8N-28" edge="1">
          <mxGeometry relative="1" as="geometry" />
        </mxCell>
        <mxCell id="Rk_urhNJCo8wzRaNjZ8N-16" value="mp4" style="rounded=0;whiteSpace=wrap;html=1;fillColor=#f5f5f5;strokeColor=#666666;fontColor=#333333;" parent="WfYX8LZw4Kz7-65XDeq0-1" vertex="1">
          <mxGeometry x="708" y="180" width="120" height="60" as="geometry" />
        </mxCell>
        <mxCell id="Rk_urhNJCo8wzRaNjZ8N-17" style="edgeStyle=orthogonalEdgeStyle;rounded=0;orthogonalLoop=1;jettySize=auto;html=1;exitX=1;exitY=0.5;exitDx=0;exitDy=0;entryX=0;entryY=0.5;entryDx=0;entryDy=0;" parent="WfYX8LZw4Kz7-65XDeq0-1" source="Rk_urhNJCo8wzRaNjZ8N-18" target="Rk_urhNJCo8wzRaNjZ8N-27" edge="1">
          <mxGeometry relative="1" as="geometry" />
        </mxCell>
        <mxCell id="Rk_urhNJCo8wzRaNjZ8N-18" value="mp4" style="rounded=0;whiteSpace=wrap;html=1;fillColor=#f5f5f5;strokeColor=#666666;fontColor=#333333;" parent="WfYX8LZw4Kz7-65XDeq0-1" vertex="1">
          <mxGeometry x="550" y="450" width="120" height="60" as="geometry" />
        </mxCell>
        <mxCell id="Rk_urhNJCo8wzRaNjZ8N-19" style="edgeStyle=orthogonalEdgeStyle;rounded=0;orthogonalLoop=1;jettySize=auto;html=1;exitX=1;exitY=0.5;exitDx=0;exitDy=0;entryX=0;entryY=0.5;entryDx=0;entryDy=0;" parent="WfYX8LZw4Kz7-65XDeq0-1" source="Rk_urhNJCo8wzRaNjZ8N-20" target="Rk_urhNJCo8wzRaNjZ8N-11" edge="1">
          <mxGeometry relative="1" as="geometry" />
        </mxCell>
        <mxCell id="Rk_urhNJCo8wzRaNjZ8N-20" value="opencv 270 RGB" style="rounded=0;whiteSpace=wrap;html=1;fillColor=#dae8fc;strokeColor=#6c8ebf;" parent="WfYX8LZw4Kz7-65XDeq0-1" vertex="1">
          <mxGeometry x="60" y="450" width="120" height="60" as="geometry" />
        </mxCell>
        <mxCell id="Rk_urhNJCo8wzRaNjZ8N-21" style="edgeStyle=orthogonalEdgeStyle;rounded=0;orthogonalLoop=1;jettySize=auto;html=1;exitX=1;exitY=0.5;exitDx=0;exitDy=0;entryX=0;entryY=0.5;entryDx=0;entryDy=0;" parent="WfYX8LZw4Kz7-65XDeq0-1" source="Rk_urhNJCo8wzRaNjZ8N-22" target="Rk_urhNJCo8wzRaNjZ8N-36" edge="1">
          <mxGeometry relative="1" as="geometry" />
        </mxCell>
        <mxCell id="Rk_urhNJCo8wzRaNjZ8N-22" value="libyuv UT" style="rounded=0;whiteSpace=wrap;html=1;" parent="WfYX8LZw4Kz7-65XDeq0-1" vertex="1">
          <mxGeometry x="210" y="180" width="120" height="60" as="geometry" />
        </mxCell>
        <mxCell id="Rk_urhNJCo8wzRaNjZ8N-23" style="edgeStyle=orthogonalEdgeStyle;rounded=0;orthogonalLoop=1;jettySize=auto;html=1;exitX=0;exitY=0.5;exitDx=0;exitDy=0;entryX=1;entryY=0.5;entryDx=0;entryDy=0;" parent="WfYX8LZw4Kz7-65XDeq0-1" source="Rk_urhNJCo8wzRaNjZ8N-26" target="Rk_urhNJCo8wzRaNjZ8N-7" edge="1">
          <mxGeometry relative="1" as="geometry" />
        </mxCell>
        <mxCell id="Rk_urhNJCo8wzRaNjZ8N-24" style="edgeStyle=orthogonalEdgeStyle;rounded=0;orthogonalLoop=1;jettySize=auto;html=1;exitX=1;exitY=0.5;exitDx=0;exitDy=0;entryX=0;entryY=0.5;entryDx=0;entryDy=0;" parent="WfYX8LZw4Kz7-65XDeq0-1" source="Rk_urhNJCo8wzRaNjZ8N-26" target="Rk_urhNJCo8wzRaNjZ8N-29" edge="1">
          <mxGeometry relative="1" as="geometry" />
        </mxCell>
        <mxCell id="Rk_urhNJCo8wzRaNjZ8N-25" style="edgeStyle=orthogonalEdgeStyle;rounded=0;orthogonalLoop=1;jettySize=auto;html=1;exitX=1;exitY=0.5;exitDx=0;exitDy=0;entryX=0;entryY=0.5;entryDx=0;entryDy=0;" parent="WfYX8LZw4Kz7-65XDeq0-1" source="Rk_urhNJCo8wzRaNjZ8N-26" target="Rk_urhNJCo8wzRaNjZ8N-30" edge="1">
          <mxGeometry relative="1" as="geometry" />
        </mxCell>
        <mxCell id="Rk_urhNJCo8wzRaNjZ8N-26" value="360p mp4" style="rounded=0;whiteSpace=wrap;html=1;" parent="WfYX8LZw4Kz7-65XDeq0-1" vertex="1">
          <mxGeometry x="380" y="305" width="120" height="60" as="geometry" />
        </mxCell>
        <mxCell id="Rk_urhNJCo8wzRaNjZ8N-27" value="RGB" style="rounded=0;whiteSpace=wrap;html=1;fillColor=#f5f5f5;strokeColor=#666666;fontColor=#333333;" parent="WfYX8LZw4Kz7-65XDeq0-1" vertex="1">
          <mxGeometry x="700" y="450" width="120" height="60" as="geometry" />
        </mxCell>
        <mxCell id="Rk_urhNJCo8wzRaNjZ8N-28" value="RGB" style="rounded=0;whiteSpace=wrap;html=1;fillColor=#f5f5f5;strokeColor=#666666;fontColor=#333333;" parent="WfYX8LZw4Kz7-65XDeq0-1" vertex="1">
          <mxGeometry x="869" y="180" width="120" height="60" as="geometry" />
        </mxCell>
        <mxCell id="Rk_urhNJCo8wzRaNjZ8N-29" value="RGB" style="rounded=0;whiteSpace=wrap;html=1;fillColor=#d5e8d4;strokeColor=#82b366;" parent="WfYX8LZw4Kz7-65XDeq0-1" vertex="1">
          <mxGeometry x="548" y="360" width="120" height="60" as="geometry" />
        </mxCell>
        <mxCell id="Rk_urhNJCo8wzRaNjZ8N-30" value="YUV" style="rounded=0;whiteSpace=wrap;html=1;fillColor=#f8cecc;strokeColor=#b85450;" parent="WfYX8LZw4Kz7-65XDeq0-1" vertex="1">
          <mxGeometry x="548" y="270" width="120" height="60" as="geometry" />
        </mxCell>
        <mxCell id="Rk_urhNJCo8wzRaNjZ8N-31" value="YUV" style="rounded=0;whiteSpace=wrap;html=1;fillColor=#f8cecc;strokeColor=#b85450;" parent="WfYX8LZw4Kz7-65XDeq0-1" vertex="1">
          <mxGeometry x="389" y="560" width="120" height="60" as="geometry" />
        </mxCell>
        <mxCell id="Rk_urhNJCo8wzRaNjZ8N-32" value="ffmpeg RGB" style="rounded=0;whiteSpace=wrap;html=1;fillColor=#dae8fc;strokeColor=#6c8ebf;" parent="WfYX8LZw4Kz7-65XDeq0-1" vertex="1">
          <mxGeometry x="-270" y="300" width="120" height="60" as="geometry" />
        </mxCell>
        <mxCell id="Rk_urhNJCo8wzRaNjZ8N-33" style="edgeStyle=orthogonalEdgeStyle;rounded=0;orthogonalLoop=1;jettySize=auto;html=1;exitX=1;exitY=0.5;exitDx=0;exitDy=0;entryX=0;entryY=0.5;entryDx=0;entryDy=0;" parent="WfYX8LZw4Kz7-65XDeq0-1" source="Rk_urhNJCo8wzRaNjZ8N-34" target="Rk_urhNJCo8wzRaNjZ8N-22" edge="1">
          <mxGeometry relative="1" as="geometry" />
        </mxCell>
        <mxCell id="Rk_urhNJCo8wzRaNjZ8N-34" value="libyuv 输入 rgb save" style="rounded=0;whiteSpace=wrap;html=1;fillColor=#dae8fc;strokeColor=#6c8ebf;" parent="WfYX8LZw4Kz7-65XDeq0-1" vertex="1">
          <mxGeometry x="50" y="180" width="120" height="60" as="geometry" />
        </mxCell>
        <mxCell id="Rk_urhNJCo8wzRaNjZ8N-35" style="edgeStyle=orthogonalEdgeStyle;rounded=0;orthogonalLoop=1;jettySize=auto;html=1;exitX=1;exitY=0.5;exitDx=0;exitDy=0;entryX=0;entryY=0.5;entryDx=0;entryDy=0;" parent="WfYX8LZw4Kz7-65XDeq0-1" source="Rk_urhNJCo8wzRaNjZ8N-36" target="Rk_urhNJCo8wzRaNjZ8N-3" edge="1">
          <mxGeometry relative="1" as="geometry" />
        </mxCell>
        <mxCell id="Rk_urhNJCo8wzRaNjZ8N-36" value="libyuv 输出 rgb" style="rounded=0;whiteSpace=wrap;html=1;fillColor=#d5e8d4;strokeColor=#82b366;" parent="WfYX8LZw4Kz7-65XDeq0-1" vertex="1">
          <mxGeometry x="380" y="180" width="120" height="60" as="geometry" />
        </mxCell>
      </root>
    </mxGraphModel>
  </diagram>
  <diagram id="6gxbYELrUnct4raeh3AH" name="超分数据集流程图">
    <mxGraphModel dx="2204" dy="769" grid="1" gridSize="10" guides="1" tooltips="1" connect="1" arrows="1" fold="1" page="1" pageScale="1" pageWidth="827" pageHeight="1169" math="0" shadow="0">
      <root>
        <mxCell id="mKN4i8h0c8EasNzb5jsP-0" />
        <mxCell id="mKN4i8h0c8EasNzb5jsP-1" parent="mKN4i8h0c8EasNzb5jsP-0" />
        <mxCell id="LlA-xRuzxWI031gxpoGE-17" style="edgeStyle=orthogonalEdgeStyle;rounded=0;orthogonalLoop=1;jettySize=auto;html=1;exitX=1;exitY=0.5;exitDx=0;exitDy=0;entryX=0;entryY=0.5;entryDx=0;entryDy=0;" edge="1" parent="mKN4i8h0c8EasNzb5jsP-1" source="LlA-xRuzxWI031gxpoGE-0" target="LlA-xRuzxWI031gxpoGE-13">
          <mxGeometry relative="1" as="geometry" />
        </mxCell>
        <mxCell id="LlA-xRuzxWI031gxpoGE-0" value="&lt;div id=&quot;magicdomid-1_5&quot; class=&quot;ace-line list-start-number1 locate&quot; dir=&quot;auto&quot;&gt;&lt;span class=&quot;author-6826118777390874625&quot; style=&quot;background-color: rgba(0 , 0 , 0 , 0) ; text-align: left ; line-height: 26.88px ; color: rgb(31 , 35 , 41)&quot;&gt;&lt;font style=&quot;font-size: 12px&quot;&gt;线上拉取&lt;/font&gt;&lt;/span&gt;&lt;/div&gt;&lt;div id=&quot;magicdomid-1_5&quot; class=&quot;ace-line list-start-number1 locate&quot; dir=&quot;auto&quot;&gt;&lt;span class=&quot;author-6826118777390874625&quot; style=&quot;background-color: rgba(0 , 0 , 0 , 0) ; text-align: left ; line-height: 26.88px ; color: rgb(31 , 35 , 41)&quot;&gt;&lt;font style=&quot;font-size: 12px&quot;&gt;anyResolutionVideo&lt;/font&gt;&lt;/span&gt;&lt;/div&gt;" style="rounded=0;whiteSpace=wrap;html=1;" vertex="1" parent="mKN4i8h0c8EasNzb5jsP-1">
          <mxGeometry x="-240" y="170" width="160" height="60" as="geometry" />
        </mxCell>
        <mxCell id="LlA-xRuzxWI031gxpoGE-35" style="edgeStyle=orthogonalEdgeStyle;rounded=0;orthogonalLoop=1;jettySize=auto;html=1;exitX=0.5;exitY=1;exitDx=0;exitDy=0;entryX=0.5;entryY=0;entryDx=0;entryDy=0;" edge="1" parent="mKN4i8h0c8EasNzb5jsP-1" source="LlA-xRuzxWI031gxpoGE-1" target="LlA-xRuzxWI031gxpoGE-27">
          <mxGeometry relative="1" as="geometry" />
        </mxCell>
        <mxCell id="LlA-xRuzxWI031gxpoGE-1" value="&lt;div id=&quot;magicdomid-1_222&quot; class=&quot;ace-line locate&quot; dir=&quot;auto&quot; style=&quot;background-color: rgba(0 , 0 , 0 , 0) ; font-size: 16px ; line-height: 26.88px ; color: rgb(31 , 35 , 41)&quot;&gt;&lt;span class=&quot;author-6826118777390874625 op-symbol&quot; style=&quot;font-size: 12px&quot;&gt;afterTransformVideo&lt;/span&gt;&lt;/div&gt;&lt;div id=&quot;magicdomid-1_222&quot; class=&quot;ace-line locate&quot; dir=&quot;auto&quot; style=&quot;background-color: rgba(0 , 0 , 0 , 0) ; font-size: 16px ; line-height: 26.88px ; color: rgb(31 , 35 , 41)&quot;&gt;&lt;span class=&quot;author-6826118777390874625 op-symbol&quot; style=&quot;font-size: 12px&quot;&gt;360pTo270p&lt;/span&gt;&lt;/div&gt;" style="rounded=0;whiteSpace=wrap;html=1;" vertex="1" parent="mKN4i8h0c8EasNzb5jsP-1">
          <mxGeometry x="550" y="170" width="160" height="60" as="geometry" />
        </mxCell>
        <mxCell id="LlA-xRuzxWI031gxpoGE-2" value="&lt;div id=&quot;magicdomid-1_242&quot; class=&quot;ace-line locate&quot; dir=&quot;auto&quot; style=&quot;background-color: rgba(0 , 0 , 0 , 0) ; font-size: 16px ; line-height: 26.88px ; color: rgb(31 , 35 , 41)&quot;&gt;&lt;span class=&quot;author-6826118777390874625 op-symbol&quot; style=&quot;font-size: 12px&quot;&gt;beforeTransformImage&lt;/span&gt;&lt;/div&gt;&lt;div id=&quot;magicdomid-1_242&quot; class=&quot;ace-line locate&quot; dir=&quot;auto&quot; style=&quot;background-color: rgba(0 , 0 , 0 , 0) ; font-size: 16px ; line-height: 26.88px ; color: rgb(31 , 35 , 41)&quot;&gt;&lt;span class=&quot;author-6826118777390874625 op-symbol&quot; style=&quot;font-size: 12px&quot;&gt;360p&lt;/span&gt;&lt;/div&gt;" style="rounded=0;whiteSpace=wrap;html=1;direction=east;" vertex="1" parent="mKN4i8h0c8EasNzb5jsP-1">
          <mxGeometry x="170" y="380" width="160" height="60" as="geometry" />
        </mxCell>
        <mxCell id="LlA-xRuzxWI031gxpoGE-31" style="edgeStyle=orthogonalEdgeStyle;rounded=0;orthogonalLoop=1;jettySize=auto;html=1;exitX=1;exitY=0.5;exitDx=0;exitDy=0;entryX=0;entryY=0.5;entryDx=0;entryDy=0;" edge="1" parent="mKN4i8h0c8EasNzb5jsP-1" source="LlA-xRuzxWI031gxpoGE-3" target="LlA-xRuzxWI031gxpoGE-14">
          <mxGeometry relative="1" as="geometry" />
        </mxCell>
        <mxCell id="LlA-xRuzxWI031gxpoGE-33" style="edgeStyle=orthogonalEdgeStyle;rounded=0;orthogonalLoop=1;jettySize=auto;html=1;exitX=0.5;exitY=1;exitDx=0;exitDy=0;entryX=0.5;entryY=0;entryDx=0;entryDy=0;" edge="1" parent="mKN4i8h0c8EasNzb5jsP-1" source="LlA-xRuzxWI031gxpoGE-3" target="LlA-xRuzxWI031gxpoGE-16">
          <mxGeometry relative="1" as="geometry" />
        </mxCell>
        <mxCell id="LlA-xRuzxWI031gxpoGE-3" value="&lt;div id=&quot;magicdomid-1_212&quot; class=&quot;ace-line locate&quot; dir=&quot;auto&quot; style=&quot;background-color: rgba(0 , 0 , 0 , 0) ; line-height: 26.88px ; color: rgb(31 , 35 , 41)&quot;&gt;&lt;span class=&quot;author-6826118777390874625 op-symbol&quot;&gt;&lt;font style=&quot;font-size: 12px&quot;&gt;beforeTransformVideo&lt;/font&gt;&lt;/span&gt;&lt;/div&gt;&lt;div id=&quot;magicdomid-1_212&quot; class=&quot;ace-line locate&quot; dir=&quot;auto&quot; style=&quot;background-color: rgba(0 , 0 , 0 , 0) ; line-height: 26.88px ; color: rgb(31 , 35 , 41)&quot;&gt;&lt;span class=&quot;author-6826118777390874625 op-symbol&quot;&gt;&lt;font style=&quot;font-size: 12px&quot;&gt;360p&lt;/font&gt;&lt;/span&gt;&lt;/div&gt;" style="rounded=0;whiteSpace=wrap;html=1;" vertex="1" parent="mKN4i8h0c8EasNzb5jsP-1">
          <mxGeometry x="170" y="170" width="160" height="60" as="geometry" />
        </mxCell>
        <mxCell id="LlA-xRuzxWI031gxpoGE-39" style="edgeStyle=orthogonalEdgeStyle;rounded=0;orthogonalLoop=1;jettySize=auto;html=1;exitX=0.5;exitY=1;exitDx=0;exitDy=0;" edge="1" parent="mKN4i8h0c8EasNzb5jsP-1" source="LlA-xRuzxWI031gxpoGE-4" target="LlA-xRuzxWI031gxpoGE-37">
          <mxGeometry relative="1" as="geometry" />
        </mxCell>
        <mxCell id="LlA-xRuzxWI031gxpoGE-69" style="edgeStyle=orthogonalEdgeStyle;rounded=0;orthogonalLoop=1;jettySize=auto;html=1;exitX=0.5;exitY=1;exitDx=0;exitDy=0;" edge="1" parent="mKN4i8h0c8EasNzb5jsP-1" source="LlA-xRuzxWI031gxpoGE-4" target="LlA-xRuzxWI031gxpoGE-67">
          <mxGeometry relative="1" as="geometry" />
        </mxCell>
        <mxCell id="LlA-xRuzxWI031gxpoGE-4" value="&lt;div id=&quot;magicdomid-1_250&quot; class=&quot;ace-line locate&quot; dir=&quot;auto&quot; style=&quot;background-color: rgba(0 , 0 , 0 , 0) ; font-size: 16px ; line-height: 26.88px ; color: rgb(31 , 35 , 41)&quot;&gt;&lt;span class=&quot;author-6826118777390874625 op-symbol&quot; style=&quot;font-size: 12px&quot;&gt;afterTransformImage&lt;/span&gt;&lt;/div&gt;&lt;div id=&quot;magicdomid-1_250&quot; class=&quot;ace-line locate&quot; dir=&quot;auto&quot; style=&quot;background-color: rgba(0 , 0 , 0 , 0) ; font-size: 16px ; line-height: 26.88px ; color: rgb(31 , 35 , 41)&quot;&gt;&lt;span class=&quot;author-6826118777390874625 op-symbol&quot; style=&quot;font-size: 12px&quot;&gt;360pTo270&lt;/span&gt;&lt;/div&gt;" style="rounded=0;whiteSpace=wrap;html=1;" vertex="1" parent="mKN4i8h0c8EasNzb5jsP-1">
          <mxGeometry x="550" y="380" width="160" height="60" as="geometry" />
        </mxCell>
        <mxCell id="LlA-xRuzxWI031gxpoGE-18" style="edgeStyle=orthogonalEdgeStyle;rounded=0;orthogonalLoop=1;jettySize=auto;html=1;exitX=1;exitY=0.5;exitDx=0;exitDy=0;entryX=0;entryY=0.5;entryDx=0;entryDy=0;" edge="1" parent="mKN4i8h0c8EasNzb5jsP-1" source="LlA-xRuzxWI031gxpoGE-13" target="LlA-xRuzxWI031gxpoGE-3">
          <mxGeometry relative="1" as="geometry" />
        </mxCell>
        <mxCell id="LlA-xRuzxWI031gxpoGE-13" value="&lt;div id=&quot;magicdomid-14_3&quot; class=&quot;ace-line&quot; dir=&quot;auto&quot; style=&quot;background-color: rgba(0 , 0 , 0 , 0) ; line-height: 18px ; color: rgb(31 , 35 , 41)&quot;&gt;&lt;span class=&quot;&quot;&gt;&lt;font style=&quot;font-size: 11px&quot;&gt;&#39;ffmpeg -i {0} -r {1} -crf 18 -s {2}x{3} -y {4}&#39;&lt;/font&gt;&lt;/span&gt;&lt;/div&gt;" style="ellipse;whiteSpace=wrap;html=1;" vertex="1" parent="mKN4i8h0c8EasNzb5jsP-1">
          <mxGeometry x="-40" y="160" width="160" height="80" as="geometry" />
        </mxCell>
        <mxCell id="LlA-xRuzxWI031gxpoGE-32" style="edgeStyle=orthogonalEdgeStyle;rounded=0;orthogonalLoop=1;jettySize=auto;html=1;exitX=1;exitY=0.5;exitDx=0;exitDy=0;entryX=0;entryY=0.5;entryDx=0;entryDy=0;" edge="1" parent="mKN4i8h0c8EasNzb5jsP-1" source="LlA-xRuzxWI031gxpoGE-14" target="LlA-xRuzxWI031gxpoGE-1">
          <mxGeometry relative="1" as="geometry" />
        </mxCell>
        <mxCell id="LlA-xRuzxWI031gxpoGE-14" value="&lt;div id=&quot;magicdomid-16_3&quot; class=&quot;ace-line&quot; dir=&quot;auto&quot; style=&quot;background-color: rgba(0 , 0 , 0 , 0) ; font-size: 14px ; line-height: 18px ; color: rgb(31 , 35 , 41)&quot;&gt;&lt;span class=&quot;&quot; style=&quot;font-size: 12px&quot;&gt;ffmpeg -i {0} -r {5} -s {3}x{4} -c:v libx264 -x264-params \&quot;nal-hrd=cbr\&quot; -b:v {2}k -minrate {2}k -maxrate {2}k -bufsize {2}k -y {1}&lt;/span&gt;&lt;/div&gt;" style="ellipse;whiteSpace=wrap;html=1;fillColor=#f8cecc;strokeColor=#b85450;" vertex="1" parent="mKN4i8h0c8EasNzb5jsP-1">
          <mxGeometry x="360" y="160" width="160" height="80" as="geometry" />
        </mxCell>
        <mxCell id="LlA-xRuzxWI031gxpoGE-34" style="edgeStyle=orthogonalEdgeStyle;rounded=0;orthogonalLoop=1;jettySize=auto;html=1;exitX=0.5;exitY=1;exitDx=0;exitDy=0;entryX=0.5;entryY=0;entryDx=0;entryDy=0;" edge="1" parent="mKN4i8h0c8EasNzb5jsP-1" source="LlA-xRuzxWI031gxpoGE-16" target="LlA-xRuzxWI031gxpoGE-2">
          <mxGeometry relative="1" as="geometry" />
        </mxCell>
        <mxCell id="LlA-xRuzxWI031gxpoGE-16" value="&lt;span style=&quot;color: rgb(31 , 35 , 41)&quot;&gt;ffmpeg -i {} -vsync 0 {}/%09d.png&lt;/span&gt;" style="ellipse;whiteSpace=wrap;html=1;direction=east;" vertex="1" parent="mKN4i8h0c8EasNzb5jsP-1">
          <mxGeometry x="170" y="270" width="160" height="80" as="geometry" />
        </mxCell>
        <mxCell id="LlA-xRuzxWI031gxpoGE-36" style="edgeStyle=orthogonalEdgeStyle;rounded=0;orthogonalLoop=1;jettySize=auto;html=1;exitX=0.5;exitY=1;exitDx=0;exitDy=0;entryX=0.5;entryY=0;entryDx=0;entryDy=0;" edge="1" parent="mKN4i8h0c8EasNzb5jsP-1" source="LlA-xRuzxWI031gxpoGE-27" target="LlA-xRuzxWI031gxpoGE-4">
          <mxGeometry relative="1" as="geometry" />
        </mxCell>
        <mxCell id="LlA-xRuzxWI031gxpoGE-27" value="&lt;span style=&quot;color: rgb(31 , 35 , 41)&quot;&gt;ffmpeg&lt;/span&gt;&lt;div id=&quot;magicdomid-18_3&quot; class=&quot;ace-line&quot; dir=&quot;auto&quot; style=&quot;background-color: rgba(0 , 0 , 0 , 0) ; line-height: 18px ; color: rgb(31 , 35 , 41)&quot;&gt;&lt;span class=&quot;&quot;&gt;&lt;font style=&quot;font-size: 12px&quot;&gt;&amp;nbsp;-i {} -vsync 0 {}/%09d.png&lt;/font&gt;&lt;/span&gt;&lt;/div&gt;" style="ellipse;whiteSpace=wrap;html=1;" vertex="1" parent="mKN4i8h0c8EasNzb5jsP-1">
          <mxGeometry x="550" y="270" width="160" height="80" as="geometry" />
        </mxCell>
        <mxCell id="LlA-xRuzxWI031gxpoGE-40" style="edgeStyle=orthogonalEdgeStyle;rounded=0;orthogonalLoop=1;jettySize=auto;html=1;exitX=0.5;exitY=1;exitDx=0;exitDy=0;entryX=0.5;entryY=0;entryDx=0;entryDy=0;" edge="1" parent="mKN4i8h0c8EasNzb5jsP-1" source="LlA-xRuzxWI031gxpoGE-37" target="LlA-xRuzxWI031gxpoGE-38">
          <mxGeometry relative="1" as="geometry" />
        </mxCell>
        <mxCell id="LlA-xRuzxWI031gxpoGE-37" value="upsample-&amp;gt;1.0x SR Net" style="ellipse;whiteSpace=wrap;html=1;" vertex="1" parent="mKN4i8h0c8EasNzb5jsP-1">
          <mxGeometry x="400" y="480" width="160" height="80" as="geometry" />
        </mxCell>
        <mxCell id="LlA-xRuzxWI031gxpoGE-38" value="SR 360p" style="rounded=0;whiteSpace=wrap;html=1;" vertex="1" parent="mKN4i8h0c8EasNzb5jsP-1">
          <mxGeometry x="400" y="598" width="160" height="60" as="geometry" />
        </mxCell>
        <mxCell id="LlA-xRuzxWI031gxpoGE-78" style="edgeStyle=orthogonalEdgeStyle;rounded=0;orthogonalLoop=1;jettySize=auto;html=1;exitX=1;exitY=0.5;exitDx=0;exitDy=0;entryX=0;entryY=0.5;entryDx=0;entryDy=0;" edge="1" parent="mKN4i8h0c8EasNzb5jsP-1" source="LlA-xRuzxWI031gxpoGE-41" target="LlA-xRuzxWI031gxpoGE-77">
          <mxGeometry relative="1" as="geometry" />
        </mxCell>
        <mxCell id="LlA-xRuzxWI031gxpoGE-41" value="RTCdemo 采集&amp;nbsp;&lt;span style=&quot;color: rgb(31 , 35 , 41) ; text-align: left&quot;&gt;anyResolutionVideo&lt;/span&gt;" style="rounded=0;whiteSpace=wrap;html=1;" vertex="1" parent="mKN4i8h0c8EasNzb5jsP-1">
          <mxGeometry x="-240" y="780" width="120" height="60" as="geometry" />
        </mxCell>
        <mxCell id="LlA-xRuzxWI031gxpoGE-53" style="edgeStyle=orthogonalEdgeStyle;rounded=0;orthogonalLoop=1;jettySize=auto;html=1;exitX=1;exitY=0.5;exitDx=0;exitDy=0;entryX=0;entryY=0.5;entryDx=0;entryDy=0;" edge="1" parent="mKN4i8h0c8EasNzb5jsP-1" source="LlA-xRuzxWI031gxpoGE-42" target="LlA-xRuzxWI031gxpoGE-52">
          <mxGeometry relative="1" as="geometry" />
        </mxCell>
        <mxCell id="LlA-xRuzxWI031gxpoGE-42" value="&lt;div id=&quot;magicdomid-1_222&quot; class=&quot;ace-line locate&quot; dir=&quot;auto&quot; style=&quot;background-color: rgba(0 , 0 , 0 , 0) ; font-size: 16px ; line-height: 26.88px ; color: rgb(31 , 35 , 41)&quot;&gt;&lt;span class=&quot;author-6826118777390874625 op-symbol&quot; style=&quot;font-size: 12px&quot;&gt;afterTransformVideo&lt;/span&gt;&lt;/div&gt;&lt;div id=&quot;magicdomid-1_222&quot; class=&quot;ace-line locate&quot; dir=&quot;auto&quot; style=&quot;background-color: rgba(0 , 0 , 0 , 0) ; font-size: 16px ; line-height: 26.88px ; color: rgb(31 , 35 , 41)&quot;&gt;&lt;span class=&quot;author-6826118777390874625 op-symbol&quot; style=&quot;font-size: 12px&quot;&gt;360pTo270p&lt;/span&gt;&lt;/div&gt;" style="rounded=0;whiteSpace=wrap;html=1;" vertex="1" parent="mKN4i8h0c8EasNzb5jsP-1">
          <mxGeometry x="200" y="780" width="120" height="60" as="geometry" />
        </mxCell>
        <mxCell id="LlA-xRuzxWI031gxpoGE-43" value="&lt;meta charset=&quot;utf-8&quot;&gt;&lt;span style=&quot;color: rgb(0, 0, 0); font-family: helvetica; font-size: 12px; font-style: normal; font-weight: 400; letter-spacing: normal; text-align: center; text-indent: 0px; text-transform: none; word-spacing: 0px; background-color: rgb(248, 249, 250); display: inline; float: none;&quot;&gt;SR 360p&lt;/span&gt;" style="rounded=0;whiteSpace=wrap;html=1;" vertex="1" parent="mKN4i8h0c8EasNzb5jsP-1">
          <mxGeometry x="820" y="730" width="120" height="60" as="geometry" />
        </mxCell>
        <mxCell id="LlA-xRuzxWI031gxpoGE-46" style="edgeStyle=orthogonalEdgeStyle;rounded=0;orthogonalLoop=1;jettySize=auto;html=1;exitX=1;exitY=0.5;exitDx=0;exitDy=0;entryX=0;entryY=0.5;entryDx=0;entryDy=0;" edge="1" parent="mKN4i8h0c8EasNzb5jsP-1" source="LlA-xRuzxWI031gxpoGE-44" target="LlA-xRuzxWI031gxpoGE-42">
          <mxGeometry relative="1" as="geometry" />
        </mxCell>
        <mxCell id="LlA-xRuzxWI031gxpoGE-44" value="&lt;font color=&quot;#1f2329&quot;&gt;openh264&lt;br&gt;OR&lt;br&gt;硬件&lt;br&gt;&lt;/font&gt;" style="ellipse;whiteSpace=wrap;html=1;direction=east;fillColor=#f8cecc;strokeColor=#b85450;" vertex="1" parent="mKN4i8h0c8EasNzb5jsP-1">
          <mxGeometry x="50" y="770" width="120" height="80" as="geometry" />
        </mxCell>
        <mxCell id="LlA-xRuzxWI031gxpoGE-64" style="edgeStyle=orthogonalEdgeStyle;rounded=0;orthogonalLoop=1;jettySize=auto;html=1;exitX=1;exitY=0.5;exitDx=0;exitDy=0;entryX=0;entryY=0.5;entryDx=0;entryDy=0;" edge="1" parent="mKN4i8h0c8EasNzb5jsP-1" source="LlA-xRuzxWI031gxpoGE-48" target="LlA-xRuzxWI031gxpoGE-60">
          <mxGeometry relative="1" as="geometry" />
        </mxCell>
        <mxCell id="LlA-xRuzxWI031gxpoGE-48" value="upsample-&amp;gt;1.0x SR Net" style="ellipse;whiteSpace=wrap;html=1;direction=east;" vertex="1" parent="mKN4i8h0c8EasNzb5jsP-1">
          <mxGeometry x="510" y="720" width="120" height="80" as="geometry" />
        </mxCell>
        <mxCell id="LlA-xRuzxWI031gxpoGE-63" style="edgeStyle=orthogonalEdgeStyle;rounded=0;orthogonalLoop=1;jettySize=auto;html=1;exitX=1;exitY=0.5;exitDx=0;exitDy=0;entryX=0;entryY=0.5;entryDx=0;entryDy=0;" edge="1" parent="mKN4i8h0c8EasNzb5jsP-1" source="LlA-xRuzxWI031gxpoGE-52" target="LlA-xRuzxWI031gxpoGE-48">
          <mxGeometry relative="1" as="geometry" />
        </mxCell>
        <mxCell id="LlA-xRuzxWI031gxpoGE-76" style="edgeStyle=orthogonalEdgeStyle;rounded=0;orthogonalLoop=1;jettySize=auto;html=1;exitX=1;exitY=0.5;exitDx=0;exitDy=0;entryX=0;entryY=0.5;entryDx=0;entryDy=0;" edge="1" parent="mKN4i8h0c8EasNzb5jsP-1" source="LlA-xRuzxWI031gxpoGE-52" target="LlA-xRuzxWI031gxpoGE-73">
          <mxGeometry relative="1" as="geometry" />
        </mxCell>
        <mxCell id="LlA-xRuzxWI031gxpoGE-52" value="&lt;font color=&quot;#1f2329&quot;&gt;libyuv::I420ToBGR&lt;/font&gt;" style="ellipse;whiteSpace=wrap;html=1;direction=east;" vertex="1" parent="mKN4i8h0c8EasNzb5jsP-1">
          <mxGeometry x="350" y="770" width="120" height="80" as="geometry" />
        </mxCell>
        <mxCell id="LlA-xRuzxWI031gxpoGE-62" style="edgeStyle=orthogonalEdgeStyle;rounded=0;orthogonalLoop=1;jettySize=auto;html=1;exitX=1;exitY=0.5;exitDx=0;exitDy=0;" edge="1" parent="mKN4i8h0c8EasNzb5jsP-1" source="LlA-xRuzxWI031gxpoGE-60" target="LlA-xRuzxWI031gxpoGE-43">
          <mxGeometry relative="1" as="geometry" />
        </mxCell>
        <mxCell id="LlA-xRuzxWI031gxpoGE-60" value="&lt;span style=&quot;color: rgb(31 , 35 , 41)&quot;&gt;libyuv::BGRToI420&lt;/span&gt;" style="ellipse;whiteSpace=wrap;html=1;direction=east;" vertex="1" parent="mKN4i8h0c8EasNzb5jsP-1">
          <mxGeometry x="660" y="720" width="120" height="80" as="geometry" />
        </mxCell>
        <mxCell id="LlA-xRuzxWI031gxpoGE-70" style="edgeStyle=orthogonalEdgeStyle;rounded=0;orthogonalLoop=1;jettySize=auto;html=1;exitX=0.5;exitY=1;exitDx=0;exitDy=0;entryX=0.5;entryY=0;entryDx=0;entryDy=0;" edge="1" parent="mKN4i8h0c8EasNzb5jsP-1" source="LlA-xRuzxWI031gxpoGE-67" target="LlA-xRuzxWI031gxpoGE-68">
          <mxGeometry relative="1" as="geometry" />
        </mxCell>
        <mxCell id="LlA-xRuzxWI031gxpoGE-67" value="2.0x SR Net-&amp;gt;down sample" style="ellipse;whiteSpace=wrap;html=1;" vertex="1" parent="mKN4i8h0c8EasNzb5jsP-1">
          <mxGeometry x="690" y="480" width="160" height="80" as="geometry" />
        </mxCell>
        <mxCell id="LlA-xRuzxWI031gxpoGE-68" value="SR 360p" style="rounded=0;whiteSpace=wrap;html=1;" vertex="1" parent="mKN4i8h0c8EasNzb5jsP-1">
          <mxGeometry x="690" y="598" width="160" height="60" as="geometry" />
        </mxCell>
        <mxCell id="LlA-xRuzxWI031gxpoGE-71" value="&lt;meta charset=&quot;utf-8&quot;&gt;&lt;span style=&quot;color: rgb(0, 0, 0); font-family: helvetica; font-size: 12px; font-style: normal; font-weight: 400; letter-spacing: normal; text-align: center; text-indent: 0px; text-transform: none; word-spacing: 0px; background-color: rgb(248, 249, 250); display: inline; float: none;&quot;&gt;SR 360p&lt;/span&gt;" style="rounded=0;whiteSpace=wrap;html=1;" vertex="1" parent="mKN4i8h0c8EasNzb5jsP-1">
          <mxGeometry x="820" y="850" width="120" height="60" as="geometry" />
        </mxCell>
        <mxCell id="LlA-xRuzxWI031gxpoGE-72" style="edgeStyle=orthogonalEdgeStyle;rounded=0;orthogonalLoop=1;jettySize=auto;html=1;exitX=1;exitY=0.5;exitDx=0;exitDy=0;entryX=0;entryY=0.5;entryDx=0;entryDy=0;" edge="1" parent="mKN4i8h0c8EasNzb5jsP-1" source="LlA-xRuzxWI031gxpoGE-73" target="LlA-xRuzxWI031gxpoGE-75">
          <mxGeometry relative="1" as="geometry" />
        </mxCell>
        <mxCell id="LlA-xRuzxWI031gxpoGE-73" value="2.0x SR Net-&amp;gt;down sample" style="ellipse;whiteSpace=wrap;html=1;direction=east;" vertex="1" parent="mKN4i8h0c8EasNzb5jsP-1">
          <mxGeometry x="510" y="840" width="120" height="80" as="geometry" />
        </mxCell>
        <mxCell id="LlA-xRuzxWI031gxpoGE-74" style="edgeStyle=orthogonalEdgeStyle;rounded=0;orthogonalLoop=1;jettySize=auto;html=1;exitX=1;exitY=0.5;exitDx=0;exitDy=0;" edge="1" parent="mKN4i8h0c8EasNzb5jsP-1" source="LlA-xRuzxWI031gxpoGE-75" target="LlA-xRuzxWI031gxpoGE-71">
          <mxGeometry relative="1" as="geometry" />
        </mxCell>
        <mxCell id="LlA-xRuzxWI031gxpoGE-75" value="&lt;span style=&quot;color: rgb(31 , 35 , 41)&quot;&gt;libyuv::BGRToI420&lt;/span&gt;" style="ellipse;whiteSpace=wrap;html=1;direction=east;" vertex="1" parent="mKN4i8h0c8EasNzb5jsP-1">
          <mxGeometry x="660" y="840" width="120" height="80" as="geometry" />
        </mxCell>
        <mxCell id="LlA-xRuzxWI031gxpoGE-79" style="edgeStyle=orthogonalEdgeStyle;rounded=0;orthogonalLoop=1;jettySize=auto;html=1;exitX=1;exitY=0.5;exitDx=0;exitDy=0;entryX=0;entryY=0.5;entryDx=0;entryDy=0;" edge="1" parent="mKN4i8h0c8EasNzb5jsP-1" source="LlA-xRuzxWI031gxpoGE-77" target="LlA-xRuzxWI031gxpoGE-44">
          <mxGeometry relative="1" as="geometry" />
        </mxCell>
        <mxCell id="LlA-xRuzxWI031gxpoGE-77" value="&lt;font color=&quot;#1f2329&quot;&gt;libyuv scale&lt;/font&gt;" style="ellipse;whiteSpace=wrap;html=1;direction=east;fillColor=#f8cecc;strokeColor=#b85450;" vertex="1" parent="mKN4i8h0c8EasNzb5jsP-1">
          <mxGeometry x="-90" y="770" width="120" height="80" as="geometry" />
        </mxCell>
      </root>
    </mxGraphModel>
  </diagram>
</mxfile>
